<?xml version="1.0" encoding="UTF-8" standalone="no"?>
<!-- Generator: Adobe Illustrator 26.2.1, SVG Export Plug-In . SVG Version: 6.00 Build 0)  -->

<svg
   version="1.1"
   id="图层_1"
   x="0px"
   y="0px"
   viewBox="0 0 905.17289 895.62799"
   xml:space="preserve"
   sodipodi:docname="tool5.svg"
   width="905.17291"
   height="895.62799"
   inkscape:version="1.4.2 (f4327f4, 2025-05-13)"
   xmlns:inkscape="http://www.inkscape.org/namespaces/inkscape"
   xmlns:sodipodi="http://sodipodi.sourceforge.net/DTD/sodipodi-0.dtd"
   xmlns:xlink="http://www.w3.org/1999/xlink"
   xmlns="http://www.w3.org/2000/svg"
   xmlns:svg="http://www.w3.org/2000/svg"><defs
   id="defs10"><filter
     style="color-interpolation-filters:sRGB"
     inkscape:label="Drop Shadow"
     id="filter31"
     x="-0.037870511"
     y="-0.12979071"
     width="1.0757411"
     height="1.2982095"><feFlood
       result="flood"
       in="SourceGraphic"
       flood-opacity="0.498039"
       flood-color="rgb(0,0,0)"
       id="feFlood30" /><feGaussianBlur
       result="blur"
       in="SourceGraphic"
       stdDeviation="1.400000"
       id="feGaussianBlur30" /><feOffset
       result="offset"
       in="blur"
       dx="0.000000"
       dy="1.000000"
       id="feOffset30" /><feComposite
       result="comp1"
       operator="in"
       in="flood"
       in2="offset"
       id="feComposite30" /><feComposite
       result="comp2"
       operator="over"
       in="SourceGraphic"
       in2="comp1"
       id="feComposite31" /></filter><clipPath
     id="SVGID_00000034072274116108435540000005253180379226173582_">
			<rect
   id="use1"
   x="77"
   y="338"
   width="401"
   height="401" />
		</clipPath><linearGradient
     id="SVGID_00000170960372507131761640000001278503464287914941_"
     gradientUnits="userSpaceOnUse"
     x1="1.5963"
     y1="10.9819"
     x2="7.862"
     y2="10.9819"
     gradientTransform="matrix(54.8325,0,0,54.8325,2,-26.022)">
				<stop
   offset="0"
   style="stop-color:#fe84de;stop-opacity:1;"
   id="stop2" />
				
				<stop
   offset="1"
   style="stop-color:#8fe0f4;stop-opacity:1;"
   id="stop4" />
			</linearGradient><clipPath
     id="SVGID_00000051376361049199669770000003039952577508302230_">
				<path
   id="use2"
   d="m 89.53,437.75 v 209.84 c 0.14,37.08 25.96,69.11 62.15,77.13 -3.34,2.36 91.46,2.07 159.49,1.8 36.81,-0.16 65.78,-0.31 67.14,-0.04 6.92,-0.02 12.52,-5.65 12.5,-12.56 -0.02,-6.92 -5.64,-12.52 -12.56,-12.5 H 168.42 C 138.78,701.21 114.81,677.24 114.6,647.6 V 437.75 c 0,-6.92 -5.61,-12.53 -12.53,-12.53 -6.92,0 -12.54,5.61 -12.54,12.53" />
			</clipPath><clipPath
     id="clipPath3">
			<rect
   id="use3"
   x="77"
   y="338"
   width="401"
   height="401" />
		</clipPath><linearGradient
     id="SVGID_00000040562677975369722890000002688009448438587568_"
     gradientUnits="userSpaceOnUse"
     x1="1.6663001"
     y1="10.0612"
     x2="7.9319"
     y2="10.0612"
     gradientTransform="matrix(54.5205,0,0,54.5205,2.6297,-36.17)">
				<stop
   offset="0"
   style="stop-color:#fe84de;stop-opacity:1;"
   id="stop5" />
				<stop
   offset="1"
   style="stop-color:#8fe0f4;stop-opacity:1;"
   id="stop6" />
			</linearGradient><clipPath
     id="SVGID_00000141427836456062779410000015546593957902124169_">
				<path
   id="use4"
   d="m 176,350.53 c -18.88,0.03 -34.17,15.33 -34.21,34.21 V 640 c 0.04,18.88 15.33,34.17 34.21,34.21 h 255.26 c 18.88,-0.04 34.18,-15.33 34.21,-34.21 V 384.74 c -0.03,-18.88 -15.33,-34.18 -34.21,-34.21 z" />
			</clipPath><clipPath
     id="clipPath5">
			<rect
   id="use5"
   x="77"
   y="338"
   width="401"
   height="401" />
		</clipPath><clipPath
     id="SVGID_00000074420688130213777130000012219800574172749498_">
				<rect
   id="use6"
   x="77"
   y="338"
   width="401"
   height="401" />
			</clipPath><clipPath
     id="clipPath7">
				<rect
   id="use7"
   x="77"
   y="338"
   width="401"
   height="401" />
			</clipPath><clipPath
     id="clipPath8">
				<rect
   id="use8"
   x="77"
   y="338"
   width="401"
   height="401" />
			</clipPath><clipPath
     id="clipPath9">
				<rect
   id="use9"
   x="77"
   y="338"
   width="401"
   height="401" />
			</clipPath><clipPath
     id="clipPath10">
				<rect
   id="use10"
   x="77"
   y="338"
   width="401"
   height="401" />
			</clipPath><rect
     id="rect11"
     x="77"
     y="338"
     width="401"
     height="401" /><path
     id="path11"
     d="m 89.53,437.75 v 209.84 c 0.14,37.08 25.96,69.11 62.15,77.13 -3.34,2.36 91.46,2.07 159.49,1.8 36.81,-0.16 65.78,-0.31 67.14,-0.04 6.92,-0.02 12.52,-5.65 12.5,-12.56 -0.02,-6.92 -5.64,-12.52 -12.56,-12.5 H 168.42 C 138.78,701.21 114.81,677.24 114.6,647.6 V 437.75 c 0,-6.92 -5.61,-12.53 -12.53,-12.53 -6.92,0 -12.54,5.61 -12.54,12.53" /><path
     id="path12"
     d="m 176,350.53 c -18.88,0.03 -34.17,15.33 -34.21,34.21 V 640 c 0.04,18.88 15.33,34.17 34.21,34.21 h 255.26 c 18.88,-0.04 34.18,-15.33 34.21,-34.21 V 384.74 c -0.03,-18.88 -15.33,-34.18 -34.21,-34.21 z" /><rect
     id="rect12"
     x="77"
     y="338"
     width="401"
     height="401" /></defs><sodipodi:namedview
   id="namedview10"
   pagecolor="#ffffff"
   bordercolor="#000000"
   borderopacity="0.25"
   inkscape:showpageshadow="2"
   inkscape:pageopacity="0.0"
   inkscape:pagecheckerboard="0"
   inkscape:deskcolor="#d1d1d1"
   inkscape:zoom="0.34444445"
   inkscape:cx="-904.35484"
   inkscape:cy="-145.16129"
   inkscape:window-width="2560"
   inkscape:window-height="1378"
   inkscape:window-x="1073"
   inkscape:window-y="-6"
   inkscape:window-maximized="1"
   inkscape:current-layer="图层_1" />
<style
   type="text/css"
   id="style1">
	.st0{clip-path:url(#SVGID_00000029026154455280648010000005538567040820916866_);}
	
		.st1{clip-path:url(#SVGID_00000064315974716017623690000007298095199790608779_);fill:url(#SVGID_00000003105045877606941270000009348632993645026746_);}
	
		.st2{clip-path:url(#SVGID_00000170280798875456919100000010628304888979706512_);fill:url(#SVGID_00000153690093818805161820000004624630524341700514_);}
	.st3{clip-path:url(#SVGID_00000006684213712411265310000014994831065024440704_);fill:#FFFFFF;}
	.st4{fill:#1A1A1A;}
	.st5{fill:#272727;}
	.st6{fill:#343434;}
	.st7{fill:#414141;}
	.st8{fill:#747474;}
	.st9{fill:#8C8C8C;}
</style>


<style
   type="text/css"
   id="style1-2">
	.st0{fill:url(#id_101_00000063624897399644206150000011227749146119788721_);}
	.st1{fill:url(#id_102_00000010309053927518378910000000643427353987737776_);}
	.st2{fill:#FFFFFF;}
</style><g
   id="logo-group"
   transform="matrix(2.3332091,0,0,2.3332091,-742.01658,-266.8964)"><image
     xlink:href=""
     id="container"
     x="272"
     y="144"
     width="480"
     height="480"
     style="display:none" /><g
     id="logo-center"><image
       xlink:href=""
       id="icon_container"
       x="0"
       y="0"
       style="display:none" /><g
       id="slogan"
       style="font-style:normal;font-weight:400;font-size:32px;line-height:1;font-family:Montserrat;font-variant-ligatures:none;text-align:center;text-anchor:middle" /><g
       id="title"
       style="font-style:normal;font-weight:700;font-size:72px;line-height:1;font-family:'Comfortaa Bold Alt1';font-variant-ligatures:none;text-align:center;text-anchor:middle"><path
         style="font-weight:normal;font-size:65.9217px;font-family:Txt;-inkscape-font-specification:Txt;text-align:start;text-anchor:start;fill:#8c8c8c;stroke:#878787;stroke-width:3.45626"
         d="m 344.43913,502.40391 -8.88398,8.5299 h -16.86668 l -8.72304,-8.40115 v -31.70551 l 8.72304,-8.46553 h 16.86668 l 8.88398,8.59429 -1.89911,1.83473 -8.04708,-7.85395 h -14.77445 l -7.08143,6.8883 v 29.70983 l 7.08143,6.85611 h 14.77445 l 8.04708,-7.82176 z m 47.31685,8.04708 h -2.67164 v -22.46746 h -28.96949 v 22.46746 h -2.67163 v -47.57435 h 2.67163 v 22.49964 h 28.96949 v -22.49964 h 2.67164 z m 47.47778,0 h -2.67163 v -14.83882 h -28.9695 v 14.83882 H 404.921 v -16.41605 l 16.06198,-31.1583 h 2.18881 l 16.06197,31.1583 z m -3.47634,-17.3817 -13.68004,-26.52318 -13.68004,26.52318 z m 50.40693,-28.1326 H 470.8749 v 45.5143 h -2.67164 v -45.5143 h -15.28945 v -2.57507 h 33.25054 z"
         id="text3"
         transform="scale(1.0315737,0.96939268)"
         aria-label="CHAT" /><path
         id="path210281-7"
         style="font-style:normal;font-weight:700;font-size:72px;line-height:1;font-family:'Comfortaa Bold Alt1';font-variant-ligatures:none;text-align:center;text-anchor:middle"
         d="m 366.29212,379.4784 c -1.1304,-1.01736 -2.48688,-1.58256 -4.06944,-1.58256 H 333.1714 c -1.01736,0 -1.80864,-0.22608 -2.48688,-0.90432 -0.67824,-0.67824 -0.90432,-1.46952 -0.90432,-2.48688 v -20.57328 c 0,-1.01736 0.22608,-1.80864 0.90432,-2.48688 0.67824,-0.67824 1.46952,-1.01736 2.48688,-1.01736 h 41.8248 c 1.6956,0 3.05208,-0.45216 4.18248,-1.46952 1.01736,-0.90432 1.58256,-2.2608 1.58256,-3.84336 0,-1.58256 -0.5652,-2.93904 -1.58256,-3.9564 -1.1304,-1.01736 -2.48688,-1.58256 -4.18248,-1.58256 h -51.09408 c -1.6956,0 -3.16512,0.5652 -4.18248,1.6956 -1.1304,1.1304 -1.6956,2.48688 -1.6956,4.18248 v 76.52808 c 0,1.6956 0.5652,3.05208 1.6956,4.18248 1.1304,1.1304 2.48688,1.6956 4.18248,1.6956 1.58256,0 3.05208,-0.5652 4.18248,-1.6956 1.1304,-1.1304 1.6956,-2.48688 1.6956,-4.18248 v -29.72952 c 0,-1.01736 0.22608,-1.80864 0.90432,-2.48688 0.67824,-0.67824 1.46952,-1.01736 2.48688,-1.01736 h 29.05128 c 1.58256,0 2.93904,-0.45216 4.06944,-1.46952 1.1304,-1.01736 1.6956,-2.2608 1.6956,-3.9564 0,-1.58256 -0.5652,-2.826 -1.6956,-3.84336 z"
         stroke-width="0"
         stroke-linejoin="miter"
         stroke-miterlimit="2"
         fill="#1a1a1a"
         stroke="#1a1a1a" /><path
         id="path210283-6"
         style="font-style:normal;font-weight:700;font-size:72px;line-height:1;font-family:'Comfortaa Bold Alt1';font-variant-ligatures:none;text-align:center;text-anchor:middle"
         d="m 447.38394,-55.224 c -0.72,0.72 -1.008,1.584 -1.008,2.592 v 39.312 c 0,2.592 0.432,4.896 1.368,6.912 0.864,2.016 2.16,3.6 3.816,4.752 1.656,1.152 3.528,1.656 5.616,1.656 h 0.144 c 1.44,0 2.592,-0.288 3.528,-1.008 0.864,-0.648 1.368,-1.512 1.368,-2.592 0,-1.008 -0.36,-1.872 -0.936,-2.592 -0.576,-0.648 -1.368,-1.008 -2.304,-1.008 h -1.8 c -1.08,0 -1.944,-0.576 -2.592,-1.728 -0.72,-1.152 -1.008,-2.592 -1.008,-4.392 v -39.312 c 0,-1.008 -0.36,-1.872 -1.008,-2.592 -0.72,-0.648 -1.584,-1.008 -2.592,-1.008 -1.08,0 -1.944,0.36 -2.592,1.008 z"
         stroke-width="0"
         stroke-linejoin="miter"
         stroke-miterlimit="2"
         fill="#272727"
         stroke="#272727"
         transform="matrix(1.57,0,0,1.57,-300.55585,427.85952)" /><path
         id="path210285-1"
         style="font-style:normal;font-weight:700;font-size:72px;line-height:1;font-family:'Comfortaa Bold Alt1';font-variant-ligatures:none;text-align:center;text-anchor:middle"
         d="m 505.61619,-3.672 v -32.112 c 0,-1.08 -0.36,-1.944 -1.008,-2.664 -0.72,-0.648 -1.584,-1.008 -2.664,-1.008 -1.08,0 -1.944,0.36 -2.664,1.008 -0.72,0.72 -1.008,1.584 -1.008,2.664 v 20.304 c 0,1.8 -0.504,3.312 -1.44,4.68 -0.936,1.44 -2.232,2.52 -3.888,3.312 -1.656,0.864 -3.528,1.224 -5.472,1.224 -3.528,0 -6.264,-0.936 -8.352,-2.952 -2.088,-2.016 -3.096,-4.968 -3.096,-8.856 v -17.712 c 0,-1.008 -0.36,-1.872 -1.08,-2.592 -0.72,-0.72 -1.584,-1.08 -2.592,-1.08 -1.08,0 -1.944,0.36 -2.664,1.08 -0.72,0.72 -1.008,1.584 -1.008,2.592 v 17.712 c 0,3.96 0.72,7.272 2.232,10.008 1.44,2.736 3.528,4.896 6.192,6.264 2.52,1.44 5.256,2.16 8.28,2.232 0.144,0 5.688,0 16.848,0 0.936,0 1.728,-0.36 2.376,-1.008 0.648,-0.648 1.008,-1.44 1.008,-2.448 z"
         stroke-width="0"
         stroke-linejoin="miter"
         stroke-miterlimit="2"
         fill="#343434"
         stroke="#343434"
         transform="matrix(1.57,0,0,1.57,-292.70585,427.85952)" /><path
         id="path210287-4"
         style="font-style:normal;font-weight:700;font-size:72px;line-height:1;font-family:'Comfortaa Bold Alt1';font-variant-ligatures:none;text-align:center;text-anchor:middle"
         d="m 520.27831,-38.376 c -0.72,0.72 -1.008,1.584 -1.008,2.664 v 32.04 c 0,1.08 0.288,1.944 1.008,2.664 0.72,0.72 1.584,1.008 2.664,1.008 1.08,0 1.944,-0.288 2.664,-1.008 0.648,-0.72 1.008,-1.584 1.008,-2.664 v -32.04 c 0,-1.08 -0.36,-1.944 -1.008,-2.664 -0.72,-0.648 -1.584,-1.008 -2.664,-1.008 -1.08,0 -1.944,0.36 -2.664,1.008 z"
         stroke-width="0"
         stroke-linejoin="miter"
         stroke-miterlimit="2"
         fill="#414141"
         stroke="#414141"
         transform="matrix(1.57,0,0,1.57,-284.85585,427.85952)" /><path
         id="path210289-2"
         style="font-style:normal;font-weight:700;font-size:72px;line-height:1;font-family:'Comfortaa Bold Alt1';font-variant-ligatures:none;text-align:center;text-anchor:middle"
         d="m 564.10719,-54.432 c -2.304,-1.224 -4.896,-1.872 -7.632,-1.872 -3.096,0 -5.904,0.648 -8.352,1.944 -2.52,1.296 -4.464,3.024 -5.904,5.256 -1.44,2.232 -2.16,4.68 -2.16,7.416 0,1.08 0.288,1.944 0.936,2.664 0.576,0.72 1.368,1.008 2.376,1.008 0.936,0 1.728,-0.36 2.376,-1.08 0.576,-0.72 0.936,-1.656 0.936,-2.808 0,-1.44 0.432,-2.808 1.296,-4.032 0.864,-1.152 2.088,-2.16 3.6,-2.88 1.512,-0.72 3.168,-1.08 5.04,-1.08 2.376,0 4.32,0.72 5.904,2.16 1.512,1.44 2.304,3.24 2.304,5.328 0,1.44 -0.432,2.808 -1.224,3.96 -0.792,1.224 -1.8,2.16 -3.096,2.88 -1.296,0.72 -2.592,1.008 -3.888,1.008 -1.08,0 -1.944,0.36 -2.664,1.08 -0.72,0.72 -1.008,1.584 -1.008,2.592 0,1.08 0.288,1.944 1.008,2.664 0.72,0.72 1.584,1.08 2.664,1.08 1.8,0 3.456,0.504 4.968,1.44 1.512,0.936 2.736,2.232 3.6,3.888 0.864,1.656 1.296,3.456 1.296,5.4 0,3.168 -1.008,5.616 -2.88,7.344 -1.944,1.8 -4.536,2.664 -7.704,2.664 -2.16,0 -4.104,-0.432 -5.832,-1.44 -1.728,-1.008 -3.096,-2.304 -4.104,-3.96 -1.008,-1.656 -1.512,-3.456 -1.512,-5.472 0,-1.008 -0.36,-1.944 -0.936,-2.664 -0.648,-0.72 -1.44,-1.08 -2.376,-1.08 -1.008,0 -1.8,0.36 -2.376,1.08 -0.648,0.72 -0.936,1.656 -0.936,2.664 0,3.312 0.792,6.264 2.376,8.856 1.584,2.592 3.744,4.68 6.552,6.192 2.808,1.512 5.976,2.232 9.576,2.232 3.096,0 5.976,-0.648 8.64,-2.088 2.664,-1.44 4.824,-3.384 6.408,-5.904 1.584,-2.448 2.376,-5.256 2.376,-8.352 0,-3.456 -0.936,-6.48 -2.664,-9.072 -1.8,-2.592 -4.536,-4.464 -8.136,-5.76 2.448,-1.08 4.464,-2.592 6.12,-4.464 1.584,-1.872 2.448,-4.176 2.448,-6.768 0,-2.592 -0.72,-4.896 -2.016,-7.056 -1.296,-2.088 -3.096,-3.744 -5.4,-4.968 z"
         stroke-width="0"
         stroke-linejoin="miter"
         stroke-miterlimit="2"
         fill="#747474"
         stroke="#747474"
         transform="matrix(1.57,0,0,1.57,-277.00585,427.85952)" /><path
         id="path210291-3"
         style="font-style:normal;font-weight:700;font-size:72px;line-height:1;font-family:'Comfortaa Bold Alt1';font-variant-ligatures:none;text-align:center;text-anchor:middle"
         d="m 581.43106,-19.728 c 0,3.816 0.864,7.2 2.592,10.224 1.728,3.024 4.176,5.472 7.2,7.2 3.024,1.728 6.408,2.592 10.08,2.592 h 0.288 0.144 15.912 c 1.008,0 1.8,-0.288 2.448,-0.936 0.72,-0.72 1.008,-1.512 1.008,-2.448 v -15.336 -1.296 -32.832 c 0,-1.08 -0.288,-1.944 -1.008,-2.664 -0.648,-0.648 -1.512,-1.008 -2.664,-1.008 -1.008,0 -1.872,0.36 -2.592,1.008 -0.72,0.72 -1.08,1.584 -1.08,2.664 v 19.44 c -1.656,-2.016 -3.672,-3.6 -6.12,-4.824 -2.376,-1.152 -4.968,-1.728 -7.776,-1.728 -3.456,0 -6.552,0.864 -9.36,2.592 -2.808,1.8 -5.04,4.176 -6.624,7.2 -1.584,3.024 -2.448,6.48 -2.448,10.152 z m 7.056,0 c 0,-2.52 0.576,-4.824 1.728,-6.84 1.152,-2.016 2.664,-3.672 4.608,-4.824 1.944,-1.152 4.104,-1.8 6.48,-1.8 2.448,0 4.608,0.648 6.552,1.8 1.944,1.152 3.456,2.808 4.536,4.824 1.152,2.016 1.656,4.32 1.656,6.84 0,2.592 -0.504,4.896 -1.656,6.912 -1.08,2.088 -2.592,3.744 -4.536,4.896 -1.944,1.152 -4.104,1.728 -6.552,1.728 -2.376,0 -4.536,-0.576 -6.48,-1.728 -1.944,-1.152 -3.456,-2.808 -4.608,-4.896 -1.152,-2.016 -1.728,-4.32 -1.728,-6.912 z"
         stroke-width="0"
         stroke-linejoin="miter"
         stroke-miterlimit="2"
         fill="#8c8c8c"
         stroke="#8c8c8c"
         transform="matrix(1.57,0,0,1.57,-269.15585,427.85952)" /></g><image
       xlink:href=""
       id="icon"
       x="0"
       y="0"
       style="display:none" /></g></g><g
   id="g9"
   transform="translate(175.08647,-350.53)"
   style="display:inline">
		<defs
   id="defs10-3">
			<rect
   id="rect1"
   x="77"
   y="338"
   width="401"
   height="401" />
		</defs>
		<clipPath
   id="clipPath11">
			<rect
   id="use11"
   x="77"
   y="338"
   width="401"
   height="401" />
		</clipPath>
		<g
   clip-path="url(#SVGID_00000034072274116108435540000005253180379226173582_)"
   id="g4">
			<defs
   id="defs2">
				<path
   id="path1"
   d="m 89.53,437.75 v 209.84 c 0.14,37.08 25.96,69.11 62.15,77.13 -3.34,2.36 91.46,2.07 159.49,1.8 36.81,-0.16 65.78,-0.31 67.14,-0.04 6.92,-0.02 12.52,-5.65 12.5,-12.56 -0.02,-6.92 -5.64,-12.52 -12.56,-12.5 H 168.42 C 138.78,701.21 114.81,677.24 114.6,647.6 V 437.75 c 0,-6.92 -5.61,-12.53 -12.53,-12.53 -6.92,0 -12.54,5.61 -12.54,12.53" />
			</defs>
			<clipPath
   id="clipPath12">
				<path
   id="use12"
   d="m 89.53,437.75 v 209.84 c 0.14,37.08 25.96,69.11 62.15,77.13 -3.34,2.36 91.46,2.07 159.49,1.8 36.81,-0.16 65.78,-0.31 67.14,-0.04 6.92,-0.02 12.52,-5.65 12.5,-12.56 -0.02,-6.92 -5.64,-12.52 -12.56,-12.5 H 168.42 C 138.78,701.21 114.81,677.24 114.6,647.6 V 437.75 c 0,-6.92 -5.61,-12.53 -12.53,-12.53 -6.92,0 -12.54,5.61 -12.54,12.53" />
			</clipPath>
			
				<linearGradient
   id="linearGradient14"
   gradientUnits="userSpaceOnUse"
   x1="1.5963"
   y1="10.9819"
   x2="7.862"
   y2="10.9819"
   gradientTransform="matrix(54.8325,0,0,54.8325,2,-26.022)">
				<stop
   offset="0"
   style="stop-color:#84BDFE"
   id="stop12" />
				<stop
   offset="0.9938"
   style="stop-color:#6ACAF0"
   id="stop13" />
				<stop
   offset="1"
   style="stop-color:#6ACAF0"
   id="stop14" />
			</linearGradient>
			
				<rect
   x="89.529999"
   y="425.22"
   style="fill:url(#SVGID_00000170960372507131761640000001278503464287914941_)"
   width="301.29999"
   height="301.85001"
   clip-path="url(#SVGID_00000051376361049199669770000003039952577508302230_)"
   id="rect4" />
		</g>
		<g
   clip-path="url(#SVGID_00000034072274116108435540000005253180379226173582_)"
   id="g6">
			<defs
   id="defs4">
				<path
   id="path2"
   d="m 176,350.53 c -18.88,0.03 -34.17,15.33 -34.21,34.21 V 640 c 0.04,18.88 15.33,34.17 34.21,34.21 h 255.26 c 18.88,-0.04 34.18,-15.33 34.21,-34.21 V 384.74 c -0.03,-18.88 -15.33,-34.18 -34.21,-34.21 z" />
			</defs>
			<clipPath
   id="clipPath14">
				<path
   id="use14"
   d="m 176,350.53 c -18.88,0.03 -34.17,15.33 -34.21,34.21 V 640 c 0.04,18.88 15.33,34.17 34.21,34.21 h 255.26 c 18.88,-0.04 34.18,-15.33 34.21,-34.21 V 384.74 c -0.03,-18.88 -15.33,-34.18 -34.21,-34.21 z" />
			</clipPath>
			
				<linearGradient
   id="linearGradient16"
   gradientUnits="userSpaceOnUse"
   x1="1.6663001"
   y1="10.0612"
   x2="7.9319"
   y2="10.0612"
   gradientTransform="matrix(54.5205,0,0,54.5205,2.6297,-36.17)">
				<stop
   offset="0"
   style="stop-color:#84BDFE"
   id="stop15" />
				<stop
   offset="1"
   style="stop-color:#6ACAF0"
   id="stop16" />
			</linearGradient>
			
				<rect
   x="141.78999"
   y="350.53"
   style="fill:url(#SVGID_00000040562677975369722890000002688009448438587568_)"
   width="323.67999"
   height="323.67999"
   clip-path="url(#SVGID_00000141427836456062779410000015546593957902124169_)"
   id="rect6" />
		</g>
		<g
   clip-path="url(#SVGID_00000034072274116108435540000005253180379226173582_)"
   id="g8">
			<defs
   id="defs6">
				<rect
   id="rect2"
   x="77"
   y="338"
   width="401"
   height="401" />
			</defs>
			<clipPath
   id="clipPath16">
				<rect
   id="use16"
   x="77"
   y="338"
   width="401"
   height="401" />
			</clipPath>
			<path
   style="fill:#ffffff"
   d="m 312.71,621.77 c 0.27,13.67 11.57,24.54 25.24,24.27 13.67,-0.27 24.54,-11.57 24.27,-25.24 -0.08,-3.82 -1.08,-7.36 -2.68,-10.56 l 48.66,-50.61 c 3.26,1.48 6.85,2.34 10.66,2.27 13.68,-0.27 24.54,-11.57 24.27,-25.24 -0.26,-13.68 -11.57,-24.54 -25.24,-24.27 -13.67,0.27 -24.54,11.57 -24.27,25.24 0.08,3.82 1.08,7.36 2.68,10.56 l -48.65,50.61 c -3.26,-1.48 -6.84,-2.34 -10.66,-2.27 -13.69,0.26 -24.55,11.57 -24.28,25.24"
   clip-path="url(#SVGID_00000074420688130213777130000012219800574172749498_)"
   id="path6" />
			<path
   style="fill:#ffffff"
   d="m 283.61,589.78 c -5.93,0 -11.87,-2.17 -16.37,-6.51 -4.45,-4.3 -6.89,-10.03 -6.87,-16.12 0.02,-6.1 2.51,-11.81 7,-16.08 l 84.99,-80.63 c 1.18,-1.13 1.84,-2.59 1.85,-4.14 0.01,-1.55 -0.64,-3.02 -1.82,-4.15 -2.63,-2.53 -7.06,-2.54 -9.72,-0.03 l -84.99,80.63 c -9.02,8.56 -23.65,8.51 -32.59,-0.13 -4.45,-4.29 -6.9,-10.02 -6.87,-16.12 0.02,-6.1 2.51,-11.81 7,-16.08 l 84.99,-80.63 c 1.18,-1.13 1.84,-2.59 1.85,-4.14 0.01,-1.54 -0.64,-3.01 -1.81,-4.15 -2.63,-2.53 -7.08,-2.56 -9.74,-0.03 l -31.87,30.23 c -9.02,8.57 -23.64,8.5 -32.59,-0.12 l 11.48,-11.92 c 2.63,2.54 7.09,2.55 9.73,0.04 l 31.87,-30.24 c 9.02,-8.56 23.65,-8.5 32.59,0.13 4.45,4.29 6.9,10.02 6.87,16.12 -0.03,6.11 -2.52,11.82 -7.01,16.08 l -84.98,80.63 c -1.18,1.12 -1.84,2.59 -1.85,4.14 -0.01,1.54 0.64,3.01 1.81,4.14 2.63,2.54 7.09,2.55 9.72,0.04 l 84.99,-80.63 c 9.03,-8.56 23.65,-8.5 32.59,0.13 4.45,4.3 6.89,10.02 6.87,16.13 -0.03,6.1 -2.51,11.8 -7,16.07 l -84.98,80.63 c -1.19,1.12 -1.84,2.59 -1.85,4.14 -0.01,1.55 0.63,3.02 1.8,4.15 2.63,2.53 7.08,2.54 9.73,0.03 l 31.87,-30.24 c 9.03,-8.56 23.65,-8.5 32.6,0.12 l -11.48,11.92 c -2.63,-2.54 -7.07,-2.55 -9.73,-0.04 l -31.87,30.24 c -4.47,4.26 -10.34,6.39 -16.21,6.39"
   clip-path="url(#SVGID_00000074420688130213777130000012219800574172749498_)"
   id="path7" />
			
				<rect
   x="351.91"
   y="541.67999"
   transform="matrix(0.6936,-0.7203,0.7203,0.6936,-292.8571,430.9386)"
   style="fill:#ffffff"
   width="16.549999"
   height="36.139999"
   clip-path="url(#SVGID_00000074420688130213777130000012219800574172749498_)"
   id="rect7" />
			
				<rect
   x="220.57001"
   y="415.07001"
   transform="matrix(0.6936,-0.7203,0.7203,0.6936,-241.8957,297.5396)"
   style="fill:#ffffff"
   width="16.540001"
   height="36.139999"
   clip-path="url(#SVGID_00000074420688130213777130000012219800574172749498_)"
   id="rect8" />
			<path
   style="fill:#ffffff"
   d="m 207.49,386.22 c 13.86,0 25.1,11.23 25.1,25.1 0,13.86 -11.24,25.09 -25.1,25.09 -13.86,0 -25.1,-11.23 -25.1,-25.09 0,-13.86 11.24,-25.1 25.1,-25.1"
   clip-path="url(#SVGID_00000074420688130213777130000012219800574172749498_)"
   id="path8" />
		</g>
	</g></svg>
